HIERARCHY
ROOT reference
{
  OFFSET 0 0 0
  CHANNELS 6 Xposition Yposition Zposition Zrotation Xrotation Yrotation
  JOINT Hips
  {
    OFFSET 168.712 82.6761 44.8956
    CHANNELS 6 Xposition Yposition Zposition Zrotation Xrotation Yrotation
    JOINT Spine
    {
      OFFSET 0 8.25043 0
      CHANNELS 6 Xposition Yposition Zposition Zrotation Xrotation Yrotation
      JOINT Spine1
      {
        OFFSET 0 26.9735 0
        CHANNELS 6 Xposition Yposition Zposition Zrotation Xrotation Yrotation
        JOINT Neck
        {
          OFFSET 0 26.8627 2.44206
          CHANNELS 6 Xposition Yposition Zposition Zrotation Xrotation Yrotation
          JOINT Head
          {
            OFFSET 0 14.0861 -2.0123
            CHANNELS 6 Xposition Yposition Zposition Zrotation Xrotation Yrotation
            End Site
            {
              OFFSET 0 25.1537 0
            }
          }
        }
        JOINT LeftShoulder
        {
          OFFSET 4.03461 23.8974 -0.31355
          CHANNELS 6 Xposition Yposition Zposition Zrotation Xrotation Yrotation
          JOINT LeftArm
          {
            OFFSET 14.6104 0 0
            CHANNELS 6 Xposition Yposition Zposition Zrotation Xrotation Yrotation
            JOINT LeftForeArm
            {
              OFFSET 28.8903 0 0
              CHANNELS 6 Xposition Yposition Zposition Zrotation Xrotation Yrotation
              JOINT LeftHand
              {
                OFFSET 28.8168 0 0
                CHANNELS 6 Xposition Yposition Zposition Zrotation Xrotation Yrotation
                End Site
                {
                  OFFSET 15.0922 0 0
                }
              }
            }
          }
        }
        JOINT RightShoulder
        {
          OFFSET -4.01401 23.8974 -0.31355
          CHANNELS 6 Xposition Yposition Zposition Zrotation Xrotation Yrotation
          JOINT RightArm
          {
            OFFSET -14.6104 0 0
            CHANNELS 6 Xposition Yposition Zposition Zrotation Xrotation Yrotation
            JOINT RightForeArm
            {
              OFFSET -28.8903 0 0
              CHANNELS 6 Xposition Yposition Zposition Zrotation Xrotation Yrotation
              JOINT RightHand
              {
                OFFSET -28.8168 0 0
                CHANNELS 6 Xposition Yposition Zposition Zrotation Xrotation Yrotation
                End Site
                {
                  OFFSET -15.0922 0 0
                }
              }
            }
          }
        }
      }
    }
    JOINT LeftUpLeg
    {
      OFFSET 10.0615 0 0
      CHANNELS 6 Xposition Yposition Zposition Zrotation Xrotation Yrotation
      JOINT LeftLeg
      {
        OFFSET 0 -36.0896 0
        CHANNELS 6 Xposition Yposition Zposition Zrotation Xrotation Yrotation
        JOINT LeftFoot
        {
          OFFSET 0 -47.1136 0
          CHANNELS 6 Xposition Yposition Zposition Zrotation Xrotation Yrotation
          JOINT LeftToeBase
          {
            OFFSET 0 -6.53997 15.0922
            CHANNELS 6 Xposition Yposition Zposition Zrotation Xrotation Yrotation
            End Site
            {
              OFFSET 0 0 4.0246
            }
          }
        }
      }
    }
    JOINT RightUpLeg
    {
      OFFSET -10.0615 0 0
      CHANNELS 6 Xposition Yposition Zposition Zrotation Xrotation Yrotation
      JOINT RightLeg
      {
        OFFSET 0 -36.0896 0
        CHANNELS 6 Xposition Yposition Zposition Zrotation Xrotation Yrotation
        JOINT RightFoot
        {
          OFFSET 0 -47.1136 0
          CHANNELS 6 Xposition Yposition Zposition Zrotation Xrotation Yrotation
          JOINT RightToeBase
          {
            OFFSET 0 -6.53997 15.0922
            CHANNELS 6 Xposition Yposition Zposition Zrotation Xrotation Yrotation
            End Site
            {
              OFFSET 0 0 4.0246
            }
          }
        }
      }
    }
  }
}
MOTION
Frames:	5
Frame Time:	0.004
0 0 0 0 0 -0 -232.729 83.516 -50.7112 -21.1384 3.85499 -1.52157 -2.84217e-014 8.25043 0 8.32493 -7.77829 -9.39708 2.84217e-014 26.9735 0 -0.681026 2.24958 -9.95082 -2.84217e-014 26.8627 2.44206 8.56394 33.8127 20.7816 0 14.0861 -2.0123 -22.6166 10.0218 22.0992 4.03461 23.8974 -0.31355 -2.66651 16.2415 -2.3128 14.6104 -2.84217e-014 7.10543e-015 -14.423 54.231 -63.1843 28.8903 7.10543e-015 0 -0.442952 -25.5784 -95.1159 28.8168 0 0 -0.0746777 -26.0083 -6.93399 -4.01401 23.8974 -0.31355 4.62853 29.6818 -1.71378 -14.6104 -1.42109e-014 7.10543e-015 53.7926 46.417 9.80847 -28.8903 0 -2.84217e-014 -19.4599 -31.8804 93.202 -28.8168 -2.84217e-014 1.42109e-014 -9.49968 -12.9083 4.38852 10.0615 -1.77636e-015 -7.10543e-015 4.14004 1.60794 -5.56377 0 -36.0896 -3.55271e-015 14.9118 69.0379 -97.5587 5.32907e-015 -47.1136 0 4.69729 -1.21959 70.7174 -2.84217e-014 -6.53997 15.0922 -3.18055e-015 6.36111e-015 1.59028e-015 -10.0615 1.77636e-015 0 15.4783 -32.5666 6.54828 2.84217e-014 -36.0896 0 2.46137 26.8115 -5.79715 0 -47.1136 0 8.76636 1.381 3.35642 2.84217e-014 -6.53997 15.0922 -5.5287e-016 0 -0 
0 0 0 0 0 -0 -232.775 83.1173 -49.7551 -20.9571 3.31947 -1.47068 0 8.25043 -7.10543e-015 8.18272 -7.51048 -9.18681 0 26.9735 0 -0.723226 2.49893 -9.70917 0 26.8627 2.44206 8.61039 33.8167 20.701 -2.84217e-014 14.0861 -2.0123 -22.7119 9.99034 22.0111 4.03461 23.8974 -0.31355 -2.58412 16.087 -2.26308 14.6104 0 -7.10543e-015 -14.9306 54.3148 -62.8845 28.8903 0 -2.84217e-014 -0.362398 -25.6684 -94.8626 28.8168 0 0 -0.744738 -25.9783 -7.34134 -4.01401 23.8974 -0.31355 4.49463 29.3838 -1.46188 -14.6104 -2.84217e-014 7.10543e-015 54.0978 46.8338 9.53092 -28.8903 0 5.68434e-014 -19.5528 -32.2342 93.2177 -28.8168 2.84217e-014 0 -10.2415 -13.3007 5.13366 10.0615 -2.4869e-014 -7.10543e-015 4.15903 1.47427 -5.55783 2.84217e-014 -36.0896 -3.55271e-015 16.0323 70.6457 -102.396 1.77636e-015 -47.1136 -5.68434e-014 5.52345 -0.667694 73.5206 0 -6.53997 15.0922 1.32417e-031 -1.59028e-015 4.77083e-015 -10.0615 8.88178e-015 0 15.2801 -32.1663 5.60931 2.84217e-014 -36.0896 7.10543e-015 2.2466 28.0361 -5.17204 2.84217e-014 -47.1136 -3.55271e-015 6.6928 -0.878112 4.253 -2.84217e-014 -6.53997 15.0922 -2.48481e-017 -3.97569e-016 -0 
0 0 0 0 0 -0 -232.822 82.6901 -48.6934 -20.8818 2.39065 -1.20334 0 8.25043 -7.10543e-015 8.16931 -6.84587 -9.01583 0 26.9735 7.10543e-015 -0.903132 2.53865 -9.48543 0 26.8627 2.44206 9.03463 34.0905 20.4116 0 14.0861 -2.0123 -22.8813 9.94517 21.7898 4.03461 23.8974 -0.31355 -2.60966 16.2645 -2.43251 14.6104 0 7.10543e-015 -15.4112 54.2204 -62.4771 28.8903 0 0 -0.289681 -25.7359 -94.5313 28.8168 1.42109e-014 1.42109e-014 -1.33243 -25.9322 -7.96848 -4.01401 23.8974 -0.31355 4.85101 29.3811 -1.57396 -14.6104 -2.84217e-014 1.42109e-014 53.9012 47.4046 9.47259 -28.8903 0 -5.68434e-014 -19.939 -32.8468 92.7997 -28.8168 0 1.42109e-014 -10.2611 -13.7278 4.99312 10.0615 5.32907e-015 -7.10543e-015 4.29066 1.89865 -5.79254 -2.84217e-014 -36.0896 3.55271e-015 17.1321 72.0344 -107.019 3.55271e-015 -47.1136 0 6.06862 -0.995795 76.3274 0 -6.53997 15.0922 -0 0 7.95139e-016 -10.0615 7.99361e-015 -7.10543e-015 14.9497 -31.2332 4.62321 0 -36.0896 3.55271e-015 2.22727 29.1741 -4.71761 -2.84217e-014 -47.1136 -3.55271e-015 2.65205 -3.33825 5.52253 0 -6.53997 15.0922 1.14301e-015 -3.97569e-016 -0 
0 0 0 0 0 -0 -232.96 82.3356 -47.7682 -20.7017 1.93703 -1.14878 2.84217e-014 8.25043 0 7.93153 -6.65111 -8.74841 -2.84217e-014 26.9735 0 -0.963569 2.79163 -9.18668 0 26.8627 2.44206 9.17497 33.9572 20.3142 2.84217e-014 14.0861 -2.0123 -22.7339 10.1039 21.7384 4.03461 23.8974 -0.31355 -2.46016 16.2388 -2.37004 14.6104 -1.42109e-014 0 -15.6065 54.2233 -62.4121 28.8903 -3.55271e-015 -2.84217e-014 -0.238695 -25.9047 -94.3528 28.8168 0 -1.42109e-014 -1.73952 -26.0214 -8.22772 -4.01401 23.8974 -0.31355 4.99776 29.202 -1.63285 -14.6104 1.42109e-014 -7.10543e-015 53.7618 47.9195 9.65848 -28.8903 0 -2.84217e-014 -20.0144 -33.1908 92.6304 -28.8168 -2.84217e-014 1.42109e-014 -10.7415 -14.1353 5.0756 10.0615 -5.32907e-015 0 4.58838 1.59344 -5.77268 -2.84217e-014 -36.0896 0 18.0784 73.6264 -111.575 -2.13163e-014 -47.1136 -5.68434e-014 6.63434 -1.22828 78.9315 -2.84217e-014 -6.53997 15.0922 0 0 -7.15625e-015 -10.0615 -8.88178e-015 0 14.9667 -30.8536 4.27771 -2.84217e-014 -36.0896 0 2.01536 30.4191 -4.12968 -2.84217e-014 -47.1136 0 1.85482 -5.74232 5.93788 0 -6.53997 15.0922 1.68967e-015 2.38542e-015 -1.59028e-015 
0 0 0 0 0 -0 -233.022 81.952 -46.7699 -20.5912 1.38216 -0.923064 0 8.25043 0 7.79835 -6.52782 -8.62351 -2.84217e-014 26.9735 1.42109e-014 -0.968794 3.26056 -9.04143 2.84217e-014 26.8627 2.44206 9.16656 33.829 20.3166 -2.84217e-014 14.0861 -2.0123 -22.7525 10.1229 21.7298 4.03461 23.8974 -0.31355 -2.494 16.1264 -2.16439 14.6104 0 -1.42109e-014 -15.9008 54.2583 -62.2319 28.8903 0 2.84217e-014 -0.174071 -25.9759 -94.1327 28.8168 0 -1.42109e-014 -2.03709 -26.004 -8.59572 -4.01401 23.8974 -0.31355 4.85162 28.8923 -1.37437 -14.6104 1.42109e-014 -7.10543e-015 54.0656 47.7468 9.3133 -28.8903 0 -2.84217e-014 -19.5715 -32.8993 92.9397 -28.8168 2.84217e-014 1.42109e-014 -10.5635 -14.1788 5.31038 10.0615 2.66454e-015 7.10543e-015 4.82133 1.4981 -5.86878 0 -36.0896 -7.10543e-015 19.4275 75.042 -116.152 0 -47.1136 -2.84217e-014 7.33364 -1.08676 81.4519 0 -6.53997 15.0922 1.59028e-015 -3.18055e-015 -4.77083e-015 -10.0615 1.24345e-014 0 14.7856 -30.3009 3.56823 0 -36.0896 -3.55271e-015 1.77402 31.6101 -2.89766 0 -47.1136 0 1.10083 -8.11216 4.84362 -2.84217e-014 -6.53997 15.0922 1.98785e-016 1.59028e-015 -0 
